<?xml version="1.0" encoding="UTF-8" standalone="no"?><!DOCTYPE svg PUBLIC "-//W3C//DTD SVG 1.1//EN" "http://www.w3.org/Graphics/SVG/1.1/DTD/svg11.dtd"><svg width="100%" height="100%" viewBox="0 0 128 128" version="1.1" xmlns="http://www.w3.org/2000/svg" xmlns:xlink="http://www.w3.org/1999/xlink" xml:space="preserve" xmlns:serif="http://www.serif.com/" style="fill-rule:evenodd;clip-rule:evenodd;stroke-linecap:round;stroke-linejoin:round;stroke-miterlimit:1.5;"><path d="M126,16l-0,96c-0,7.727 -6.273,14 -14,14l-96,0c-7.727,0 -14,-6.273 -14,-14l0,-96c0,-7.727 6.273,-14 14,-14l96,0c7.727,0 14,6.273 14,14Z" style="fill:#363d52;stroke:#212532;stroke-width:4px;"/><g id="LOGO"><g><g><path d="M22.927,70.295l0,3.333c27.405,23.836 54.809,23.836 82.214,-0l-0,-3.333l-82.214,-0Z" style="fill:#fff;fill-rule:nonzero;"/><path d="M22.927,70.295l15.352,1.414c0.808,0.067 1.313,0.539 1.515,1.414l0.404,6.767l13.332,1.01l0.808,-6.161c0.135,-0.741 0.64,-1.246 1.515,-1.515l16.362,-0c0.875,0.269 1.38,0.774 1.515,1.515l0.808,6.161l13.332,-1.01l0.404,-6.767c0.202,-0.875 0.707,-1.347 1.515,-1.414l15.352,-1.414l-0,-24.846c2.02,-2.626 3.905,-5.353 5.656,-8.181c-2.357,-3.973 -5.151,-7.609 -8.383,-10.908c-2.895,1.347 -5.656,2.929 -8.282,4.747c-2.693,-2.491 -5.656,-4.646 -8.888,-6.464c0.471,-3.434 0.741,-6.868 0.808,-10.302c-3.973,-1.885 -8.114,-3.299 -12.423,-4.242c-1.751,2.895 -3.299,5.892 -4.646,8.989c-3.299,-0.471 -6.599,-0.471 -9.898,-0c-1.347,-3.097 -2.895,-6.094 -4.646,-8.989c-4.309,0.943 -8.45,2.357 -12.423,4.242c0.067,3.434 0.337,6.868 0.808,10.302c-3.232,1.818 -6.195,3.973 -8.888,6.464c-2.626,-1.818 -5.387,-3.4 -8.282,-4.747c-3.232,3.299 -6.026,6.935 -8.383,10.908c1.751,2.828 3.636,5.555 5.656,8.181l-0,24.846Zm-0,3.333l-0,3.939c-0,27.876 82.113,27.876 82.113,-0l-0,-3.939l-13.534,1.212l-0.505,6.969c-0.135,0.673 -0.606,1.111 -1.414,1.313l-16.362,1.111c-0.808,-0 -1.347,-0.37 -1.616,-1.111l-1.01,-6.565l-13.13,-0l-1.01,6.565c-0.269,0.741 -0.808,1.111 -1.616,1.111l-16.362,-1.111c-0.808,-0.202 -1.279,-0.64 -1.414,-1.313l-0.505,-6.969l-13.635,-1.212Z" style="fill:#478cbf;fill-rule:nonzero;"/><path d="M61.105,62.922c0.303,3.434 5.555,3.434 5.858,-0l-0,-8.686c-0.303,-3.434 -5.555,-3.434 -5.858,-0l-0,8.686Z" style="fill:#fff;fill-rule:nonzero;"/><circle cx="85.547" cy="55.448" r="9.09" style="fill:#fff;"/><circle cx="42.521" cy="55.448" r="9.09" style="fill:#fff;"/><circle cx="43.329" cy="56.054" r="6.06" style="fill:#414042;"/><circle cx="84.739" cy="56.054" r="6.06" style="fill:#414042;"/></g><g><path d="M42,70.08c-8.008,-0 -14.523,-6.515 -14.523,-14.523c0,-8.008 6.515,-14.522 14.523,-14.522c8.008,-0 14.523,6.514 14.523,14.522c-0,8.008 -6.515,14.523 -14.523,14.523" style="fill:#fff;fill-opacity:0.25;fill-rule:nonzero;"/><path d="M85.993,70.08c-8.008,-0 -14.522,-6.515 -14.522,-14.523c-0,-8.008 6.514,-14.522 14.522,-14.522c8.008,-0 14.523,6.514 14.523,14.522c-0,8.008 -6.515,14.523 -14.523,14.523" style="fill:#fff;fill-opacity:0.25;fill-rule:nonzero;"/><path d="M85.993,69.586c-7.735,-0 -14.028,-6.294 -14.028,-14.029c-0,-7.735 6.293,-14.028 14.028,-14.028c7.735,-0 14.029,6.293 14.029,14.028c-0,7.735 -6.294,14.029 -14.029,14.029m-43.993,-0c-7.735,-0 -14.029,-6.294 -14.029,-14.029c0,-7.735 6.294,-14.028 14.029,-14.028c7.735,-0 14.028,6.293 14.028,14.028c0,7.735 -6.293,14.029 -14.028,14.029m43.993,-31.542c-7.239,-0 -13.467,4.415 -16.131,10.694c-1.858,-1.564 -3.886,-2.393 -5.866,-2.394c-1.979,0.001 -4.006,0.828 -5.864,2.393c-2.664,-6.279 -8.893,-10.693 -16.132,-10.693c-9.657,-0 -17.514,7.856 -17.514,17.513c0,9.657 7.857,17.514 17.514,17.514c9.657,-0 17.514,-7.857 17.514,-17.514c-0,-1.038 -0.092,-2.055 -0.266,-3.045c0.81,-0.918 2.639,-2.682 4.748,-2.683c2.118,0.001 3.942,1.762 4.749,2.682c-0.174,0.989 -0.265,2.007 -0.265,3.046c-0,9.657 7.856,17.514 17.513,17.514c9.657,-0 17.514,-7.857 17.514,-17.514c-0,-9.657 -7.857,-17.513 -17.514,-17.513" style="fill-rule:nonzero;"/></g></g><path d="M27.351,120.444l0,-16.165l7.344,-0c1.755,-0 3.302,0.334 4.642,1.004c1.339,0.67 2.386,1.605 3.14,2.806c0.755,1.201 1.132,2.625 1.132,4.272c-0,1.632 -0.377,3.052 -1.132,4.261c-0.754,1.208 -1.801,2.147 -3.14,2.817c-1.34,0.67 -2.887,1.005 -4.642,1.005l-7.344,-0Zm3.741,-3.072l3.418,0c1.078,0 2.013,-0.204 2.806,-0.612c0.793,-0.408 1.409,-0.989 1.847,-1.743c0.439,-0.755 0.659,-1.64 0.659,-2.656c-0,-1.031 -0.22,-1.92 -0.659,-2.667c-0.438,-0.747 -1.054,-1.324 -1.847,-1.732c-0.793,-0.408 -1.728,-0.612 -2.806,-0.612l-3.418,-0l0,10.022Z" style="fill:#fff;fill-rule:nonzero;"/><path d="M49.867,110.791l7.782,-0l0,2.91l-7.782,-0l0,-2.91Zm0.277,6.651l8.799,-0l-0,3.002l-12.517,-0l0,-16.165l12.216,-0l0,3.002l-8.498,-0l0,10.161Z" style="fill:#fff;fill-rule:nonzero;"/><path d="M61.922,120.444l-0,-16.165l3.094,-0l6.882,11.408l-1.64,-0l6.767,-11.408l3.071,-0l0.046,16.165l-3.51,-0l-0.023,-10.785l0.646,0l-5.403,9.076l-1.686,-0l-5.519,-9.076l0.785,0l-0,10.785l-3.51,-0Z" style="fill:#fff;fill-rule:nonzero;"/><path d="M91.827,120.721c-1.278,-0 -2.459,-0.208 -3.545,-0.624c-1.085,-0.415 -2.024,-1 -2.817,-1.755c-0.793,-0.754 -1.409,-1.639 -1.847,-2.655c-0.439,-1.017 -0.659,-2.125 -0.659,-3.326c0,-1.201 0.22,-2.309 0.659,-3.325c0.438,-1.016 1.058,-1.902 1.859,-2.656c0.8,-0.754 1.739,-1.339 2.817,-1.755c1.078,-0.416 2.248,-0.624 3.51,-0.624c1.278,0 2.452,0.208 3.522,0.624c1.07,0.416 2.001,1.001 2.794,1.755c0.793,0.754 1.413,1.636 1.859,2.644c0.447,1.009 0.67,2.121 0.67,3.337c-0,1.201 -0.223,2.313 -0.67,3.337c-0.446,1.024 -1.066,1.909 -1.859,2.656c-0.793,0.746 -1.724,1.328 -2.794,1.743c-1.07,0.416 -2.236,0.624 -3.499,0.624Zm-0.023,-3.187c0.724,-0 1.39,-0.123 1.998,-0.369c0.608,-0.247 1.143,-0.601 1.605,-1.063c0.461,-0.462 0.819,-1.008 1.073,-1.639c0.254,-0.632 0.381,-1.332 0.381,-2.102c0,-0.77 -0.127,-1.47 -0.381,-2.101c-0.254,-0.632 -0.608,-1.178 -1.062,-1.64c-0.454,-0.462 -0.989,-0.816 -1.605,-1.062c-0.616,-0.247 -1.285,-0.37 -2.009,-0.37c-0.723,0 -1.389,0.123 -1.997,0.37c-0.609,0.246 -1.144,0.6 -1.605,1.062c-0.462,0.462 -0.82,1.008 -1.074,1.64c-0.254,0.631 -0.381,1.331 -0.381,2.101c-0,0.755 0.127,1.451 0.381,2.09c0.254,0.639 0.608,1.189 1.062,1.651c0.454,0.462 0.989,0.816 1.605,1.063c0.616,0.246 1.286,0.369 2.009,0.369Z" style="fill:#fff;fill-rule:nonzero;"/></g></svg>